<svg xmlns="http://www.w3.org/2000/svg" viewBox="0 0 600 600" fill="none">
  <defs>
    <linearGradient id="bg3" x1="0" y1="0" x2="1" y2="1">
      <stop offset="0%" stop-color="#e4d8e8"/><stop offset="100%" stop-color="#c8b8d0"/>
    </linearGradient>
  </defs>
  <rect width="600" height="600" fill="url(#bg3)"/>
  <!-- Fabric hanging -->
  <path d="M140,100 Q280,140 460,100 L460,500 Q280,540 140,500 Z" fill="#7b6ba0" opacity="0.6"/>
  <path d="M180,100 Q300,130 420,100 L420,500 Q300,530 180,500 Z" fill="#5b4b80" opacity="0.5"/>
  <!-- Tie-dye circles -->
  <circle cx="280" cy="220" r="50" fill="none" stroke="#9b8bc0" stroke-width="2" opacity="0.6"/>
  <circle cx="280" cy="220" r="35" fill="none" stroke="#6b5b90" stroke-width="1.5" opacity="0.5"/>
  <circle cx="280" cy="220" r="20" fill="none" stroke="#4b3b70" stroke-width="1" opacity="0.4"/>
  <circle cx="280" cy="220" r="8" fill="#c8b8d0" opacity="0.5"/>
  <circle cx="340" cy="340" r="60" fill="none" stroke="#9b8bc0" stroke-width="2" opacity="0.5"/>
  <circle cx="340" cy="340" r="40" fill="none" stroke="#6b5b90" stroke-width="1.5" opacity="0.4"/>
  <circle cx="340" cy="340" r="22" fill="none" stroke="#4b3b70" stroke-width="1" opacity="0.3"/>
  <circle cx="340" cy="340" r="10" fill="#c8b8d0" opacity="0.4"/>
  <circle cx="230" cy="380" r="40" fill="none" stroke="#9b8bc0" stroke-width="1.5" opacity="0.4"/>
  <circle cx="230" cy="380" r="22" fill="none" stroke="#6b5b90" stroke-width="1" opacity="0.3"/>
  <circle cx="230" cy="380" r="10" fill="#c8b8d0" opacity="0.4"/>
  <!-- Dye pots -->
  <rect x="460" y="440" width="70" height="70" rx="12" fill="#6b5b90" opacity="0.5"/>
  <rect x="500" y="400" width="50" height="50" rx="10" fill="#4b3b70" opacity="0.4"/>
</svg>
