<svg xmlns="http://www.w3.org/2000/svg" viewBox="0 0 600 600" fill="none">
  <defs>
    <linearGradient id="bg7" x1="0" y1="0" x2="1" y2="1">
      <stop offset="0%" stop-color="#f0ece4"/><stop offset="100%" stop-color="#e4dcd0"/>
    </linearGradient>
  </defs>
  <rect width="600" height="600" fill="url(#bg7)"/>
  <!-- Gallery wall -->
  <rect x="80" y="130" width="440" height="360" rx="4" fill="#faf8f5" stroke="#d4c8b8" stroke-width="1"/>
  <!-- Art piece 1 -->
  <rect x="110" y="155" width="180" height="140" rx="6" fill="#d4c0a8" stroke="#c8b090" stroke-width="2"/>
  <circle cx="200" cy="210" r="30" fill="none" stroke="#b8956a" stroke-width="3"/>
  <circle cx="200" cy="210" r="18" fill="#c8923c" opacity="0.4"/>
  <!-- Art piece 2 -->
  <rect x="310" y="155" width="180" height="140" rx="6" fill="#c8b8d0" stroke="#b0a0c0" stroke-width="2"/>
  <path d="M340,240 L370,185 L420,240 Z" fill="none" stroke="#7b6ba0" stroke-width="2.5"/>
  <path d="M400,240 L430,180 L490,240 Z" fill="none" stroke="#7b6ba0" stroke-width="2.5"/>
  <!-- Art piece 3 -->
  <rect x="110" y="320" width="120" height="140" rx="6" fill="#e0d8c4" stroke="#c8b896" stroke-width="2"/>
  <rect x="130" y="345" width="80" height="90" rx="4" fill="#c8923c" opacity="0.3"/>
  <line x1="140" y1="360" x2="200" y2="420" stroke="#a6762c" stroke-width="2"/>
  <!-- Art piece 4 -->
  <rect x="250" y="320" width="240" height="140" rx="6" fill="#dcd0b8" stroke="#c4b090" stroke-width="2"/>
  <circle cx="340" cy="390" r="35" fill="none" stroke="#b08050" stroke-width="2"/>
  <circle cx="370" cy="390" r="35" fill="none" stroke="#c8a870" stroke-width="2"/>
  <circle cx="400" cy="390" r="35" fill="none" stroke="#d4b080" stroke-width="2"/>
  <!-- Spotlight -->
  <polygon points="300,60 200,130 400,130" fill="rgba(255,240,200,0.15)"/>
  <circle cx="300" cy="60" r="12" fill="#e8c97a" opacity="0.3"/>
</svg>
